<svg xmlns="http://www.w3.org/2000/svg" width="1200" height="300" viewBox="0 0 1200 300" role="img" fill="none" stroke-linecap="round">
<title>One run of Mario Never Dies: the line that survived, and every future that was thrown away</title>
<style>*{animation-duration:10s;animation-iteration-count:infinite;animation-timing-function:linear}#all{animation-name:all}@keyframes all{0%,93%{opacity:1}99%,100%{opacity:0}}.pen{stroke-dasharray:1;animation-name:pen}@keyframes pen{0%{stroke-dashoffset:1}75%,100%{stroke-dashoffset:0}}.head{offset-path:path('M24.0 168.9 L28.6 169.6 L33.3 170.3 L38.0 170.9 L42.6 171.4 L47.2 171.9 L51.9 172.3 L56.5 172.7 L61.2 173.0 L65.8 173.2 L70.5 173.3 L75.2 173.3 L79.8 173.2 L84.5 173.0 L89.1 172.7 L93.8 172.3 L98.4 171.7 L103.0 171.1 L107.7 170.4 L112.3 169.5 L117.0 168.6 L121.6 167.5 L126.3 166.4 L130.9 165.1 L135.6 163.8 L140.2 162.3 L144.9 160.8 L149.6 159.2 L154.2 157.5 L158.8 155.8 L163.5 153.9 L168.2 152.1 L172.8 150.2 L177.5 148.3 L182.1 146.3 L186.8 144.3 L191.4 142.3 L196.1 140.3 L200.7 138.4 L205.3 136.4 L210.0 134.5 L214.7 132.6 L219.3 130.7 L223.9 128.9 L228.6 127.2 L233.2 125.5 L237.9 123.9 L242.6 122.4 L247.2 121.0 L251.8 119.7 L256.5 118.5 L261.1 117.4 L265.8 116.4 L270.4 115.6 L275.1 114.8 L279.8 114.2 L284.4 113.7 L289.1 113.3 L293.7 113.1 L298.3 113.0 L303.0 113.0 L307.6 113.1 L312.3 113.4 L316.9 113.7 L321.6 114.2 L326.2 114.8 L330.9 115.5 L335.6 116.4 L340.2 117.3 L344.8 118.3 L349.5 119.3 L354.1 120.5 L358.8 121.7 L363.4 123.0 L368.1 124.3 L372.8 125.7 L377.4 127.1 L382.1 128.5 L386.7 130.0 L391.4 131.4 L396.0 132.9 L400.7 134.4 L405.3 135.8 L409.9 137.2 L414.6 138.6 L419.2 139.9 L423.9 141.3 L428.6 142.5 L433.2 143.7 L437.9 144.8 L442.5 145.9 L447.1 146.9 L451.8 147.8 L456.4 148.6 L461.1 149.4 L465.8 150.1 L470.4 150.6 L475.1 151.1 L479.7 151.6 L484.3 151.9 L489.0 152.1 L493.6 152.3 L498.3 152.4 L502.9 152.4 L507.6 152.3 L512.2 152.2 L516.9 152.0 L521.5 151.8 L526.2 151.5 L530.9 151.1 L535.5 150.8 L540.1 150.4 L544.8 149.9 L549.5 149.5 L554.1 149.0 L558.8 148.5 L563.4 148.1 L568.0 147.6 L572.7 147.2 L577.4 146.8 L582.0 146.4 L586.6 146.0 L591.3 145.7 L595.9 145.5 L600.6 145.3 L605.2 145.2 L609.9 145.2 L614.5 145.2 L619.2 145.3 L623.9 145.5 L628.5 145.7 L633.1 146.1 L637.8 146.5 L642.5 147.0 L647.1 147.6 L651.8 148.3 L656.4 149.1 L661.0 150.0 L665.7 150.9 L670.4 152.0 L675.0 153.1 L679.6 154.2 L684.3 155.5 L689.0 156.8 L693.6 158.1 L698.2 159.6 L702.9 161.0 L707.6 162.5 L712.2 164.0 L716.9 165.5 L721.5 167.1 L726.1 168.6 L730.8 170.2 L735.4 171.7 L740.1 173.2 L744.8 174.7 L749.4 176.1 L754.0 177.5 L758.7 178.8 L763.4 180.1 L768.0 181.3 L772.6 182.4 L777.3 183.4 L782.0 184.4 L786.6 185.2 L791.2 185.9 L795.9 186.6 L800.5 187.1 L805.2 187.4 L809.9 187.7 L814.5 187.9 L819.1 187.9 L823.8 187.8 L828.5 187.5 L833.1 187.1 L837.8 186.7 L842.4 186.0 L847.1 185.3 L851.7 184.4 L856.4 183.4 L861.0 182.3 L865.6 181.1 L870.3 179.8 L874.9 178.4 L879.6 176.9 L884.2 175.4 L888.9 173.7 L893.5 172.0 L898.2 170.2 L902.9 168.4 L907.5 166.5 L912.1 164.6 L916.8 162.7 L921.5 160.7 L926.1 158.8 L930.8 156.8 L935.4 154.9 L940.0 153.0 L944.7 151.1 L949.4 149.3 L954.0 147.5 L958.6 145.7 L963.3 144.0 L968.0 142.4 L972.6 140.9 L977.2 139.4 L981.9 138.0 L986.6 136.7 L991.2 135.5 L995.9 134.4 L1000.5 133.4 L1005.1 132.5 L1009.8 131.8 L1014.4 131.1 L1019.1 130.5 L1023.8 130.0 L1028.4 129.7 L1033.0 129.4 L1037.7 129.2 L1042.3 129.2 L1047.0 129.2 L1051.6 129.3 L1056.3 129.5 L1061.0 129.8 L1065.6 130.1 L1070.2 130.6 L1074.9 131.0 L1079.5 131.6 L1084.2 132.2 L1088.9 132.8 L1093.5 133.4 L1098.2 134.1 L1102.8 134.8 L1107.5 135.5 L1112.1 136.2 L1116.8 136.9 L1121.4 137.6 L1126.0 138.3 L1130.7 138.9 L1135.3 139.5 L1140.0 140.1');offset-distance:100%;animation-name:head}@keyframes head{0%{offset-distance:0%}75%,100%{offset-distance:100%}}.ring{transform-box:fill-box;transform-origin:center;animation-name:ring}@keyframes ring{0%,75%{opacity:0;transform:scale(.4)}79%{opacity:.5;transform:scale(1)}86%{opacity:.25;transform:scale(1.25)}100%{opacity:.5;transform:scale(1)}}@media (prefers-reduced-motion:reduce){*{animation:none!important}}.s0{stroke-dasharray:1;animation-name:s0}@keyframes s0{0%,7.38%{stroke-dashoffset:1;opacity:0}7.58%{stroke-dashoffset:.96;opacity:.5}11.88%{stroke-dashoffset:0;opacity:.5}21.38%,100%{stroke-dashoffset:0;opacity:.24}}.x0{animation-name:x0}@keyframes x0{0%,11.18%{opacity:0}12.38%{opacity:1}21.38%,100%{opacity:.75}}.n0{animation-name:n0}@keyframes n0{0%,6.98%{opacity:0}7.38%,100%{opacity:1}}.s1{stroke-dasharray:1;animation-name:s1}@keyframes s1{0%,15.20%{stroke-dashoffset:1;opacity:0}15.40%{stroke-dashoffset:.96;opacity:.5}19.70%{stroke-dashoffset:0;opacity:.5}29.20%,100%{stroke-dashoffset:0;opacity:.24}}.x1{animation-name:x1}@keyframes x1{0%,19.00%{opacity:0}20.20%{opacity:1}29.20%,100%{opacity:.75}}.n1{animation-name:n1}@keyframes n1{0%,14.80%{opacity:0}15.20%,100%{opacity:1}}.s2{stroke-dasharray:1;animation-name:s2}@keyframes s2{0%,23.37%{stroke-dashoffset:1;opacity:0}23.57%{stroke-dashoffset:.96;opacity:.5}27.87%{stroke-dashoffset:0;opacity:.5}37.37%,100%{stroke-dashoffset:0;opacity:.24}}.x2{animation-name:x2}@keyframes x2{0%,27.17%{opacity:0}28.37%{opacity:1}37.37%,100%{opacity:.75}}.n2{animation-name:n2}@keyframes n2{0%,22.97%{opacity:0}23.37%,100%{opacity:1}}.s3{stroke-dasharray:1;animation-name:s3}@keyframes s3{0%,32.36%{stroke-dashoffset:1;opacity:0}32.56%{stroke-dashoffset:.96;opacity:.5}36.86%{stroke-dashoffset:0;opacity:.5}46.36%,100%{stroke-dashoffset:0;opacity:.24}}.x3{animation-name:x3}@keyframes x3{0%,36.16%{opacity:0}37.36%{opacity:1}46.36%,100%{opacity:.75}}.n3{animation-name:n3}@keyframes n3{0%,31.96%{opacity:0}32.36%,100%{opacity:1}}.s4{stroke-dasharray:1;animation-name:s4}@keyframes s4{0%,41.14%{stroke-dashoffset:1;opacity:0}41.34%{stroke-dashoffset:.96;opacity:.5}45.64%{stroke-dashoffset:0;opacity:.5}55.14%,100%{stroke-dashoffset:0;opacity:.24}}.x4{animation-name:x4}@keyframes x4{0%,44.94%{opacity:0}46.14%{opacity:1}55.14%,100%{opacity:.75}}.n4{animation-name:n4}@keyframes n4{0%,40.74%{opacity:0}41.14%,100%{opacity:1}}.s5{stroke-dasharray:1;animation-name:s5}@keyframes s5{0%,49.47%{stroke-dashoffset:1;opacity:0}49.67%{stroke-dashoffset:.96;opacity:.5}53.97%{stroke-dashoffset:0;opacity:.5}63.47%,100%{stroke-dashoffset:0;opacity:.24}}.x5{animation-name:x5}@keyframes x5{0%,53.27%{opacity:0}54.47%{opacity:1}63.47%,100%{opacity:.75}}.n5{animation-name:n5}@keyframes n5{0%,49.07%{opacity:0}49.47%,100%{opacity:1}}.s6{stroke-dasharray:1;animation-name:s6}@keyframes s6{0%,58.42%{stroke-dashoffset:1;opacity:0}58.62%{stroke-dashoffset:.96;opacity:.5}62.92%{stroke-dashoffset:0;opacity:.5}72.42%,100%{stroke-dashoffset:0;opacity:.24}}.x6{animation-name:x6}@keyframes x6{0%,62.22%{opacity:0}63.42%{opacity:1}72.42%,100%{opacity:.75}}.n6{animation-name:n6}@keyframes n6{0%,58.02%{opacity:0}58.42%,100%{opacity:1}}.s7{stroke-dasharray:1;animation-name:s7}@keyframes s7{0%,66.92%{stroke-dashoffset:1;opacity:0}67.12%{stroke-dashoffset:.96;opacity:.5}71.42%{stroke-dashoffset:0;opacity:.5}80.92%,100%{stroke-dashoffset:0;opacity:.24}}.x7{animation-name:x7}@keyframes x7{0%,70.72%{opacity:0}71.92%{opacity:1}80.92%,100%{opacity:.75}}.n7{animation-name:n7}@keyframes n7{0%,66.52%{opacity:0}66.92%,100%{opacity:1}}</style>
<rect width="1200" height="300" rx="14" fill="#0e0e12"/>
<g id="all">
<path class="s0" pathLength="1" stroke="#fff" stroke-opacity=".9" stroke-width="1.8" opacity=".24" d="M135.6 163.8 Q160.2 156.4 174.5 130.2"/>
<path class="x0" stroke="#d97a85" stroke-width="2" opacity=".75" d="M171.1 126.8l6.8 6.8m0-6.8l-6.8 6.8"/>
<path class="s0" pathLength="1" stroke="#fff" stroke-opacity=".9" stroke-width="1.8" opacity=".24" d="M135.6 163.8 Q173.3 152.4 213.6 173.8"/>
<path class="x0" stroke="#d97a85" stroke-width="2" opacity=".75" d="M210.2 170.4l6.8 6.8m0-6.8l-6.8 6.8"/>
<path class="s0" pathLength="1" stroke="#fff" stroke-opacity=".9" stroke-width="1.8" opacity=".24" d="M135.6 163.8 Q156.1 157.6 161.8 130.0"/>
<path class="x0" stroke="#d97a85" stroke-width="2" opacity=".75" d="M158.4 126.6l6.8 6.8m0-6.8l-6.8 6.8"/>
<path class="s0" pathLength="1" stroke="#fff" stroke-opacity=".9" stroke-width="1.8" opacity=".24" d="M135.6 163.8 Q173.5 152.4 210.5 189.3"/>
<path class="x0" stroke="#d97a85" stroke-width="2" opacity=".75" d="M207.1 185.9l6.8 6.8m0-6.8l-6.8 6.8"/>
<path class="s1" pathLength="1" stroke="#fff" stroke-opacity=".9" stroke-width="1.8" opacity=".24" d="M247.2 121.0 Q287.7 109.2 311.6 66.3"/>
<path class="x1" stroke="#d97a85" stroke-width="2" opacity=".75" d="M308.2 62.9l6.8 6.8m0-6.8l-6.8 6.8"/>
<path class="s1" pathLength="1" stroke="#fff" stroke-opacity=".9" stroke-width="1.8" opacity=".24" d="M247.2 121.0 Q276.1 112.6 307.0 129.2"/>
<path class="x1" stroke="#d97a85" stroke-width="2" opacity=".75" d="M303.6 125.8l6.8 6.8m0-6.8l-6.8 6.8"/>
<path class="s1" pathLength="1" stroke="#fff" stroke-opacity=".9" stroke-width="1.8" opacity=".24" d="M247.2 121.0 Q285.0 110.0 295.9 59.1"/>
<path class="x1" stroke="#d97a85" stroke-width="2" opacity=".75" d="M292.5 55.7l6.8 6.8m0-6.8l-6.8 6.8"/>
<path class="s1" pathLength="1" stroke="#fff" stroke-opacity=".9" stroke-width="1.8" opacity=".24" d="M247.2 121.0 Q286.4 109.6 324.3 147.9"/>
<path class="x1" stroke="#d97a85" stroke-width="2" opacity=".75" d="M320.9 144.5l6.8 6.8m0-6.8l-6.8 6.8"/>
<path class="s1" pathLength="1" stroke="#fff" stroke-opacity=".9" stroke-width="1.8" opacity=".24" d="M247.2 121.0 Q267.8 115.0 266.5 82.6"/>
<path class="x1" stroke="#d97a85" stroke-width="2" opacity=".75" d="M263.1 79.2l6.8 6.8m0-6.8l-6.8 6.8"/>
<path class="s1" pathLength="1" stroke="#fff" stroke-opacity=".9" stroke-width="1.8" opacity=".24" d="M247.2 121.0 Q273.9 113.2 295.0 149.4"/>
<path class="x1" stroke="#d97a85" stroke-width="2" opacity=".75" d="M291.6 146.0l6.8 6.8m0-6.8l-6.8 6.8"/>
<path class="s2" pathLength="1" stroke="#fff" stroke-opacity=".9" stroke-width="1.8" opacity=".24" d="M370.0 124.9 Q392.2 131.4 415.9 118.7"/>
<path class="x2" stroke="#d97a85" stroke-width="2" opacity=".75" d="M412.5 115.3l6.8 6.8m0-6.8l-6.8 6.8"/>
<path class="s2" pathLength="1" stroke="#fff" stroke-opacity=".9" stroke-width="1.8" opacity=".24" d="M370.0 124.9 Q401.1 134.0 419.4 167.0"/>
<path class="x2" stroke="#d97a85" stroke-width="2" opacity=".75" d="M416.0 163.6l6.8 6.8m0-6.8l-6.8 6.8"/>
<path class="s2" pathLength="1" stroke="#fff" stroke-opacity=".9" stroke-width="1.8" opacity=".24" d="M370.0 124.9 Q390.7 130.9 410.7 110.7"/>
<path class="x2" stroke="#d97a85" stroke-width="2" opacity=".75" d="M407.3 107.3l6.8 6.8m0-6.8l-6.8 6.8"/>
<path class="s3" pathLength="1" stroke="#fff" stroke-opacity=".9" stroke-width="1.8" opacity=".24" d="M503.9 152.4 Q526.2 152.2 544.4 133.9"/>
<path class="x3" stroke="#d97a85" stroke-width="2" opacity=".75" d="M541.0 130.5l6.8 6.8m0-6.8l-6.8 6.8"/>
<path class="s3" pathLength="1" stroke="#fff" stroke-opacity=".9" stroke-width="1.8" opacity=".24" d="M503.9 152.4 Q530.8 152.2 553.2 174.0"/>
<path class="x3" stroke="#d97a85" stroke-width="2" opacity=".75" d="M549.8 170.6l6.8 6.8m0-6.8l-6.8 6.8"/>
<path class="s3" pathLength="1" stroke="#fff" stroke-opacity=".9" stroke-width="1.8" opacity=".24" d="M503.9 152.4 Q525.4 152.2 538.8 127.1"/>
<path class="x3" stroke="#d97a85" stroke-width="2" opacity=".75" d="M535.4 123.7l6.8 6.8m0-6.8l-6.8 6.8"/>
<path class="s3" pathLength="1" stroke="#fff" stroke-opacity=".9" stroke-width="1.8" opacity=".24" d="M503.9 152.4 Q540.5 152.1 563.9 194.5"/>
<path class="x3" stroke="#d97a85" stroke-width="2" opacity=".75" d="M560.5 191.1l6.8 6.8m0-6.8l-6.8 6.8"/>
<path class="s3" pathLength="1" stroke="#fff" stroke-opacity=".9" stroke-width="1.8" opacity=".24" d="M503.9 152.4 Q526.3 152.2 534.2 119.4"/>
<path class="x3" stroke="#d97a85" stroke-width="2" opacity=".75" d="M530.8 116.0l6.8 6.8m0-6.8l-6.8 6.8"/>
<path class="s3" pathLength="1" stroke="#fff" stroke-opacity=".9" stroke-width="1.8" opacity=".24" d="M503.9 152.4 Q543.1 152.1 557.8 209.3"/>
<path class="x3" stroke="#d97a85" stroke-width="2" opacity=".75" d="M554.4 205.9l6.8 6.8m0-6.8l-6.8 6.8"/>
<path class="s3" pathLength="1" stroke="#fff" stroke-opacity=".9" stroke-width="1.8" opacity=".24" d="M503.9 152.4 Q545.3 152.1 546.7 81.5"/>
<path class="x3" stroke="#d97a85" stroke-width="2" opacity=".75" d="M543.3 78.1l6.8 6.8m0-6.8l-6.8 6.8"/>
<path class="s3" pathLength="1" stroke="#fff" stroke-opacity=".9" stroke-width="1.8" opacity=".24" d="M503.9 152.4 Q540.0 152.1 542.2 213.7"/>
<path class="x3" stroke="#d97a85" stroke-width="2" opacity=".75" d="M538.8 210.3l6.8 6.8m0-6.8l-6.8 6.8"/>
<path class="s4" pathLength="1" stroke="#fff" stroke-opacity=".9" stroke-width="1.8" opacity=".24" d="M637.8 146.5 Q678.2 150.7 715.0 121.1"/>
<path class="x4" stroke="#d97a85" stroke-width="2" opacity=".75" d="M711.6 117.7l6.8 6.8m0-6.8l-6.8 6.8"/>
<path class="s4" pathLength="1" stroke="#fff" stroke-opacity=".9" stroke-width="1.8" opacity=".24" d="M637.8 146.5 Q676.4 150.5 705.1 185.3"/>
<path class="x4" stroke="#d97a85" stroke-width="2" opacity=".75" d="M701.7 181.9l6.8 6.8m0-6.8l-6.8 6.8"/>
<path class="s4" pathLength="1" stroke="#fff" stroke-opacity=".9" stroke-width="1.8" opacity=".24" d="M637.8 146.5 Q664.9 149.3 685.2 119.5"/>
<path class="x4" stroke="#d97a85" stroke-width="2" opacity=".75" d="M681.8 116.1l6.8 6.8m0-6.8l-6.8 6.8"/>
<path class="s4" pathLength="1" stroke="#fff" stroke-opacity=".9" stroke-width="1.8" opacity=".24" d="M637.8 146.5 Q681.1 150.9 703.1 204.0"/>
<path class="x4" stroke="#d97a85" stroke-width="2" opacity=".75" d="M699.7 200.6l6.8 6.8m0-6.8l-6.8 6.8"/>
<path class="s4" pathLength="1" stroke="#fff" stroke-opacity=".9" stroke-width="1.8" opacity=".24" d="M637.8 146.5 Q669.7 149.8 686.2 104.3"/>
<path class="x4" stroke="#d97a85" stroke-width="2" opacity=".75" d="M682.8 100.9l6.8 6.8m0-6.8l-6.8 6.8"/>
<path class="s5" pathLength="1" stroke="#fff" stroke-opacity=".9" stroke-width="1.8" opacity=".24" d="M760.6 179.3 Q792.5 188.1 826.0 169.2"/>
<path class="x5" stroke="#d97a85" stroke-width="2" opacity=".75" d="M822.6 165.8l6.8 6.8m0-6.8l-6.8 6.8"/>
<path class="s5" pathLength="1" stroke="#fff" stroke-opacity=".9" stroke-width="1.8" opacity=".24" d="M760.6 179.3 Q784.1 185.8 798.2 210.2"/>
<path class="x5" stroke="#d97a85" stroke-width="2" opacity=".75" d="M794.8 206.8l6.8 6.8m0-6.8l-6.8 6.8"/>
<path class="s5" pathLength="1" stroke="#fff" stroke-opacity=".9" stroke-width="1.8" opacity=".24" d="M760.6 179.3 Q790.7 187.6 819.8 159.4"/>
<path class="x5" stroke="#d97a85" stroke-width="2" opacity=".75" d="M816.4 156.0l6.8 6.8m0-6.8l-6.8 6.8"/>
<path class="s5" pathLength="1" stroke="#fff" stroke-opacity=".9" stroke-width="1.8" opacity=".24" d="M760.6 179.3 Q788.3 186.9 798.1 222.9"/>
<path class="x5" stroke="#d97a85" stroke-width="2" opacity=".75" d="M794.7 219.5l6.8 6.8m0-6.8l-6.8 6.8"/>
<path class="s5" pathLength="1" stroke="#fff" stroke-opacity=".9" stroke-width="1.8" opacity=".24" d="M760.6 179.3 Q781.9 185.2 799.5 158.3"/>
<path class="x5" stroke="#d97a85" stroke-width="2" opacity=".75" d="M796.1 154.9l6.8 6.8m0-6.8l-6.8 6.8"/>
<path class="s5" pathLength="1" stroke="#fff" stroke-opacity=".9" stroke-width="1.8" opacity=".24" d="M760.6 179.3 Q778.8 184.3 780.0 211.7"/>
<path class="x5" stroke="#d97a85" stroke-width="2" opacity=".75" d="M776.6 208.3l6.8 6.8m0-6.8l-6.8 6.8"/>
<path class="s5" pathLength="1" stroke="#fff" stroke-opacity=".9" stroke-width="1.8" opacity=".24" d="M760.6 179.3 Q777.5 184.0 788.1 157.6"/>
<path class="x5" stroke="#d97a85" stroke-width="2" opacity=".75" d="M784.7 154.2l6.8 6.8m0-6.8l-6.8 6.8"/>
<path class="s5" pathLength="1" stroke="#fff" stroke-opacity=".9" stroke-width="1.8" opacity=".24" d="M760.6 179.3 Q788.0 186.8 781.1 232.4"/>
<path class="x5" stroke="#d97a85" stroke-width="2" opacity=".75" d="M777.7 229.0l6.8 6.8m0-6.8l-6.8 6.8"/>
<path class="s5" pathLength="1" stroke="#fff" stroke-opacity=".9" stroke-width="1.8" opacity=".24" d="M760.6 179.3 Q784.9 186.0 794.3 141.8"/>
<path class="x5" stroke="#d97a85" stroke-width="2" opacity=".75" d="M790.9 138.4l6.8 6.8m0-6.8l-6.8 6.8"/>
<path class="s5" pathLength="1" stroke="#fff" stroke-opacity=".9" stroke-width="1.8" opacity=".24" d="M760.6 179.3 Q787.8 186.8 771.6 234.8"/>
<path class="x5" stroke="#d97a85" stroke-width="2" opacity=".75" d="M768.2 231.4l6.8 6.8m0-6.8l-6.8 6.8"/>
<path class="s5" pathLength="1" stroke="#fff" stroke-opacity=".9" stroke-width="1.8" opacity=".24" d="M760.6 179.3 Q782.0 185.2 784.2 141.6"/>
<path class="x5" stroke="#d97a85" stroke-width="2" opacity=".75" d="M780.8 138.2l6.8 6.8m0-6.8l-6.8 6.8"/>
<path class="s5" pathLength="1" stroke="#fff" stroke-opacity=".9" stroke-width="1.8" opacity=".24" d="M760.6 179.3 Q778.5 184.3 761.5 216.5"/>
<path class="x5" stroke="#d97a85" stroke-width="2" opacity=".75" d="M758.1 213.1l6.8 6.8m0-6.8l-6.8 6.8"/>
<path class="s5" pathLength="1" stroke="#fff" stroke-opacity=".9" stroke-width="1.8" opacity=".24" d="M760.6 179.3 Q778.8 184.3 774.8 144.4"/>
<path class="x5" stroke="#d97a85" stroke-width="2" opacity=".75" d="M771.4 141.0l6.8 6.8m0-6.8l-6.8 6.8"/>
<path class="s5" pathLength="1" stroke="#fff" stroke-opacity=".9" stroke-width="1.8" opacity=".24" d="M760.6 179.3 Q791.2 187.7 751.3 242.1"/>
<path class="x5" stroke="#d97a85" stroke-width="2" opacity=".75" d="M747.9 238.7l6.8 6.8m0-6.8l-6.8 6.8"/>
<path class="s6" pathLength="1" stroke="#fff" stroke-opacity=".9" stroke-width="1.8" opacity=".24" d="M894.5 171.6 Q928.6 158.7 946.3 120.2"/>
<path class="x6" stroke="#d97a85" stroke-width="2" opacity=".75" d="M942.9 116.8l6.8 6.8m0-6.8l-6.8 6.8"/>
<path class="s6" pathLength="1" stroke="#fff" stroke-opacity=".9" stroke-width="1.8" opacity=".24" d="M894.5 171.6 Q931.4 157.7 973.4 176.3"/>
<path class="x6" stroke="#d97a85" stroke-width="2" opacity=".75" d="M970.0 172.9l6.8 6.8m0-6.8l-6.8 6.8"/>
<path class="s6" pathLength="1" stroke="#fff" stroke-opacity=".9" stroke-width="1.8" opacity=".24" d="M894.5 171.6 Q919.1 162.3 923.7 127.9"/>
<path class="x6" stroke="#d97a85" stroke-width="2" opacity=".75" d="M920.3 124.5l6.8 6.8m0-6.8l-6.8 6.8"/>
<path class="s6" pathLength="1" stroke="#fff" stroke-opacity=".9" stroke-width="1.8" opacity=".24" d="M894.5 171.6 Q909.3 166.0 925.1 179.7"/>
<path class="x6" stroke="#d97a85" stroke-width="2" opacity=".75" d="M921.7 176.3l6.8 6.8m0-6.8l-6.8 6.8"/>
<path class="s7" pathLength="1" stroke="#fff" stroke-opacity=".9" stroke-width="1.8" opacity=".24" d="M1017.2 130.7 Q1058.4 125.7 1088.3 88.0"/>
<path class="x7" stroke="#d97a85" stroke-width="2" opacity=".75" d="M1084.9 84.6l6.8 6.8m0-6.8l-6.8 6.8"/>
<path class="s7" pathLength="1" stroke="#fff" stroke-opacity=".9" stroke-width="1.8" opacity=".24" d="M1017.2 130.7 Q1043.0 127.6 1066.8 146.0"/>
<path class="x7" stroke="#d97a85" stroke-width="2" opacity=".75" d="M1063.4 142.6l6.8 6.8m0-6.8l-6.8 6.8"/>
<path class="s7" pathLength="1" stroke="#fff" stroke-opacity=".9" stroke-width="1.8" opacity=".24" d="M1017.2 130.7 Q1039.0 128.1 1049.6 101.1"/>
<path class="x7" stroke="#d97a85" stroke-width="2" opacity=".75" d="M1046.2 97.7l6.8 6.8m0-6.8l-6.8 6.8"/>
<path class="s7" pathLength="1" stroke="#fff" stroke-opacity=".9" stroke-width="1.8" opacity=".24" d="M1017.2 130.7 Q1055.1 126.1 1084.3 167.2"/>
<path class="x7" stroke="#d97a85" stroke-width="2" opacity=".75" d="M1080.9 163.8l6.8 6.8m0-6.8l-6.8 6.8"/>
<path class="s7" pathLength="1" stroke="#fff" stroke-opacity=".9" stroke-width="1.8" opacity=".24" d="M1017.2 130.7 Q1035.2 128.5 1038.6 101.4"/>
<path class="x7" stroke="#d97a85" stroke-width="2" opacity=".75" d="M1035.2 98.0l6.8 6.8m0-6.8l-6.8 6.8"/>
<path class="s7" pathLength="1" stroke="#fff" stroke-opacity=".9" stroke-width="1.8" opacity=".24" d="M1017.2 130.7 Q1038.8 128.1 1050.5 158.7"/>
<path class="x7" stroke="#d97a85" stroke-width="2" opacity=".75" d="M1047.1 155.3l6.8 6.8m0-6.8l-6.8 6.8"/>
<path class="s7" pathLength="1" stroke="#fff" stroke-opacity=".9" stroke-width="1.8" opacity=".24" d="M1017.2 130.7 Q1053.8 126.3 1047.9 63.8"/>
<path class="x7" stroke="#d97a85" stroke-width="2" opacity=".75" d="M1044.5 60.4l6.8 6.8m0-6.8l-6.8 6.8"/>
<path class="pen" pathLength="1" d="M24.0 168.9 L28.6 169.6 L33.3 170.3 L38.0 170.9 L42.6 171.4 L47.2 171.9 L51.9 172.3 L56.5 172.7 L61.2 173.0 L65.8 173.2 L70.5 173.3 L75.2 173.3 L79.8 173.2 L84.5 173.0 L89.1 172.7 L93.8 172.3 L98.4 171.7 L103.0 171.1 L107.7 170.4 L112.3 169.5 L117.0 168.6 L121.6 167.5 L126.3 166.4 L130.9 165.1 L135.6 163.8 L140.2 162.3 L144.9 160.8 L149.6 159.2 L154.2 157.5 L158.8 155.8 L163.5 153.9 L168.2 152.1 L172.8 150.2 L177.5 148.3 L182.1 146.3 L186.8 144.3 L191.4 142.3 L196.1 140.3 L200.7 138.4 L205.3 136.4 L210.0 134.5 L214.7 132.6 L219.3 130.7 L223.9 128.9 L228.6 127.2 L233.2 125.5 L237.9 123.9 L242.6 122.4 L247.2 121.0 L251.8 119.7 L256.5 118.5 L261.1 117.4 L265.8 116.4 L270.4 115.6 L275.1 114.8 L279.8 114.2 L284.4 113.7 L289.1 113.3 L293.7 113.1 L298.3 113.0 L303.0 113.0 L307.6 113.1 L312.3 113.4 L316.9 113.7 L321.6 114.2 L326.2 114.8 L330.9 115.5 L335.6 116.4 L340.2 117.3 L344.8 118.3 L349.5 119.3 L354.1 120.5 L358.8 121.7 L363.4 123.0 L368.1 124.3 L372.8 125.7 L377.4 127.1 L382.1 128.5 L386.7 130.0 L391.4 131.4 L396.0 132.9 L400.7 134.4 L405.3 135.8 L409.9 137.2 L414.6 138.6 L419.2 139.9 L423.9 141.3 L428.6 142.5 L433.2 143.7 L437.9 144.8 L442.5 145.9 L447.1 146.9 L451.8 147.8 L456.4 148.6 L461.1 149.4 L465.8 150.1 L470.4 150.6 L475.1 151.1 L479.7 151.6 L484.3 151.9 L489.0 152.1 L493.6 152.3 L498.3 152.4 L502.9 152.4 L507.6 152.3 L512.2 152.2 L516.9 152.0 L521.5 151.8 L526.2 151.5 L530.9 151.1 L535.5 150.8 L540.1 150.4 L544.8 149.9 L549.5 149.5 L554.1 149.0 L558.8 148.5 L563.4 148.1 L568.0 147.6 L572.7 147.2 L577.4 146.8 L582.0 146.4 L586.6 146.0 L591.3 145.7 L595.9 145.5 L600.6 145.3 L605.2 145.2 L609.9 145.2 L614.5 145.2 L619.2 145.3 L623.9 145.5 L628.5 145.7 L633.1 146.1 L637.8 146.5 L642.5 147.0 L647.1 147.6 L651.8 148.3 L656.4 149.1 L661.0 150.0 L665.7 150.9 L670.4 152.0 L675.0 153.1 L679.6 154.2 L684.3 155.5 L689.0 156.8 L693.6 158.1 L698.2 159.6 L702.9 161.0 L707.6 162.5 L712.2 164.0 L716.9 165.5 L721.5 167.1 L726.1 168.6 L730.8 170.2 L735.4 171.7 L740.1 173.2 L744.8 174.7 L749.4 176.1 L754.0 177.5 L758.7 178.8 L763.4 180.1 L768.0 181.3 L772.6 182.4 L777.3 183.4 L782.0 184.4 L786.6 185.2 L791.2 185.9 L795.9 186.6 L800.5 187.1 L805.2 187.4 L809.9 187.7 L814.5 187.9 L819.1 187.9 L823.8 187.8 L828.5 187.5 L833.1 187.1 L837.8 186.7 L842.4 186.0 L847.1 185.3 L851.7 184.4 L856.4 183.4 L861.0 182.3 L865.6 181.1 L870.3 179.8 L874.9 178.4 L879.6 176.9 L884.2 175.4 L888.9 173.7 L893.5 172.0 L898.2 170.2 L902.9 168.4 L907.5 166.5 L912.1 164.6 L916.8 162.7 L921.5 160.7 L926.1 158.8 L930.8 156.8 L935.4 154.9 L940.0 153.0 L944.7 151.1 L949.4 149.3 L954.0 147.5 L958.6 145.7 L963.3 144.0 L968.0 142.4 L972.6 140.9 L977.2 139.4 L981.9 138.0 L986.6 136.7 L991.2 135.5 L995.9 134.4 L1000.5 133.4 L1005.1 132.5 L1009.8 131.8 L1014.4 131.1 L1019.1 130.5 L1023.8 130.0 L1028.4 129.7 L1033.0 129.4 L1037.7 129.2 L1042.3 129.2 L1047.0 129.2 L1051.6 129.3 L1056.3 129.5 L1061.0 129.8 L1065.6 130.1 L1070.2 130.6 L1074.9 131.0 L1079.5 131.6 L1084.2 132.2 L1088.9 132.8 L1093.5 133.4 L1098.2 134.1 L1102.8 134.8 L1107.5 135.5 L1112.1 136.2 L1116.8 136.9 L1121.4 137.6 L1126.0 138.3 L1130.7 138.9 L1135.3 139.5 L1140.0 140.1" stroke="#d5f45c" stroke-width="4" stroke-linejoin="round"/>
<circle class="n0" cx="135.6" cy="163.8" r="4" fill="#0e0e12" stroke="#d5f45c" stroke-width="2"/>
<circle class="n1" cx="247.2" cy="121.0" r="4" fill="#0e0e12" stroke="#d5f45c" stroke-width="2"/>
<circle class="n2" cx="370.0" cy="124.9" r="4" fill="#0e0e12" stroke="#d5f45c" stroke-width="2"/>
<circle class="n3" cx="503.9" cy="152.4" r="4" fill="#0e0e12" stroke="#d5f45c" stroke-width="2"/>
<circle class="n4" cx="637.8" cy="146.5" r="4" fill="#0e0e12" stroke="#d5f45c" stroke-width="2"/>
<circle class="n5" cx="760.6" cy="179.3" r="4" fill="#0e0e12" stroke="#d5f45c" stroke-width="2"/>
<circle class="n6" cx="894.5" cy="171.6" r="4" fill="#0e0e12" stroke="#d5f45c" stroke-width="2"/>
<circle class="n7" cx="1017.2" cy="130.7" r="4" fill="#0e0e12" stroke="#d5f45c" stroke-width="2"/>
<circle class="head ring" r="15" stroke="#d5f45c" stroke-width="3" opacity=".5"/>
<circle class="head" r="8.5" fill="#d5f45c"/>
</g>
</svg>
